Land_normalized_Precision Landing14_filtered_grf
version=1
nRows=17
nColumns=37
inDegrees=yes
endheader
time		1_ground_force_vx		1_ground_force_vy		1_ground_force_vz		1_ground_force_px		1_ground_force_py		1_ground_force_pz		1_ground_torque_x		1_ground_torque_y		1_ground_torque_z		2_ground_force_vx		2_ground_force_vy		2_ground_force_vz		2_ground_force_px		2_ground_force_py		2_ground_force_pz		2_ground_torque_x		2_ground_torque_y		2_ground_torque_z		3_ground_force_vx		3_ground_force_vy		3_ground_force_vz		3_ground_force_px		3_ground_force_py		3_ground_force_pz		3_ground_torque_x		3_ground_torque_y		3_ground_torque_z		4_ground_force_vx		4_ground_force_vy		4_ground_force_vz		4_ground_force_px		4_ground_force_py		4_ground_force_pz		4_ground_torque_x		4_ground_torque_y		4_ground_torque_z		
0.869500		2.015160		-27.916651		-38.425786		0.124910		0.000000		0.214862		-0.010093		0.139819		0.192454		-4.015083		-28.361412		-28.704376		-0.246242		0.000000		0.225534		-0.334574		-2.363336		-2.391915		5.336150		-0.358364		-1.245262		0.353084		1.255232		1.892035		-0.009286		0.000624		0.002167		-18.383051		0.447579		-2.913340		-0.289347		1.264837		1.901801		0.001735		-0.000042		0.000275		
0.872606		7.225694		-22.780384		-49.828823		0.158028		0.000000		0.106893		-0.112645		0.353465		0.774984		-6.255999		-24.040228		-42.351851		-0.306225		0.000000		0.120530		-0.429336		-1.652652		-2.906688		5.338350		-0.227556		-1.283120		0.353094		1.255226		1.892041		-0.009694		0.000413		0.002330		-18.388112		0.378219		-2.861544		-0.289333		1.264826		1.901802		0.003717		-0.000077		0.000578		
0.875712		11.801250		3.074291		-39.564878		0.221070		0.000000		0.981320		-3.211393		-11.059139		0.158798		-5.890478		1.881751		-39.880280		-0.238029		0.000000		0.840909		-3.489644		-0.036556		1.177987		5.276698		-0.156695		-1.354532		0.353122		1.255213		1.892036		-0.009389		0.000279		0.002410		-18.341150		0.349437		-2.816693		-0.289320		1.264817		1.901800		0.005218		-0.000099		0.000801		
0.878818		12.636689		55.561186		3.771303		0.105221		0.000000		0.385231		0.176961		0.781187		0.055386		-0.626625		56.675830		-9.462864		-0.132454		0.000000		0.402319		0.027207		-1.597892		0.328385		5.140915		-0.152876		-1.442553		0.353158		1.255199		1.892026		-0.008691		0.000258		0.002439		-18.262129		0.360172		-2.778784		-0.289307		1.264812		1.901794		0.006094		-0.000120		0.000927		
0.881924		6.329300		135.810455		83.890889		0.107634		0.000000		0.303653		0.025330		0.532305		0.327433		11.372344		143.195136		55.878932		-0.167412		0.000000		0.324954		0.673276		8.466748		3.308892		4.949863		-0.210032		-1.524398		0.353196		1.255188		1.892011		0.003211		0.004156		0.038240		-18.182270		0.396052		-2.753664		-0.289293		1.264811		1.901783		0.006443		-0.000141		0.000976		
0.885030		-9.454569		240.039196		191.491127		0.114245		0.000000		0.274780		0.037633		-0.951795		-0.759486		30.621825		259.469413		152.960214		-0.195984		0.000000		0.303670		2.291985		19.420271		11.448740		4.753361		-0.311759		-1.577189		0.353230		1.255185		1.891995		0.003874		0.005107		0.036094		-18.129273		0.436491		-2.744351		-0.289280		1.264812		1.901764		0.006410		-0.000154		0.000971		
0.888136		-34.379594		362.884094		302.605980		0.118341		0.000000		0.265167		0.298595		-3.148716		-2.625532		55.621466		401.582249		265.235728		-0.207195		0.000000		0.300780		4.303338		31.069819		20.520875		4.615315		-0.434288		-1.585787		0.353252		1.255192		1.891974		0.003704		0.005389		0.034628		-18.115493		0.463381		-2.745096		-0.289265		1.264816		1.901729		0.006006		-0.000153		0.000910		
0.891242		-64.349782		503.538462		384.122918		0.118895		0.000000		0.269469		0.697747		-5.459564		-4.164588		82.664327		569.031800		364.798157		-0.206577		0.000000		0.310855		6.200294		42.680606		27.362925		4.583025		-0.552676		-1.547585		0.353260		1.255203		1.891949		0.002595		0.004885		0.034290		-18.135886		0.468124		-2.744326		-0.289247		1.264819		1.901680		0.005120		-0.000133		0.000775		
0.894348		-91.995649		670.180292		405.700183		0.115596		0.000000		0.285530		0.848029		-6.177633		-3.742361		106.286762		768.129964		420.182667		-0.196704		0.000000		0.330865		7.206639		52.078158		28.492879		4.665767		-0.648181		-1.470215		0.353257		1.255215		1.891917		0.000789		0.003647		0.035248		-18.175111		0.453634		-2.731544		-0.289224		1.264821		1.901619		0.003744		-0.000093		0.000563		
0.897455		-108.675686		875.793292		352.819882		0.110629		0.000000		0.309142		0.265912		-2.140134		-0.865512		120.238677		1006.612665		406.883603		-0.181948		0.000000		0.356082		6.508127		54.477974		22.025944		4.833168		-0.710811		-1.366549		0.353248		1.255224		1.891875		-0.001066		0.001976		0.037343		-18.216332		0.432168		-2.701660		-0.289197		1.264819		1.901550		0.002214		-0.000053		0.000328		
0.900561		-107.596356		1125.895345		234.498986		0.108157		0.000000		0.334795		-0.823568		8.628965		1.791652		119.668853		1280.466458		317.232172		-0.169044		0.000000		0.381281		4.164147		44.534670		11.044739		5.030369		-0.737488		-1.250765		0.353243		1.255224		1.891823		-0.003174		0.000531		0.035503		-18.247670		0.419328		-2.657065		-0.289167		1.264814		1.901478		0.001155		-0.000027		0.000168		
0.903667		-87.265682		1405.334776		82.703800		0.109439		0.000000		0.357974		-1.435855		23.153359		1.355705		104.396640		1561.739472		167.064875		-0.162368		0.000000		0.402790		1.532968		22.869833		2.467743		5.198619		-0.730482		-1.136329		0.353248		1.255215		1.891766		-0.010140		0.001425		0.002217		-18.266407		0.426934		-2.607596		-0.289134		1.264807		1.901408		0.001122		-0.000026		0.000160		
0.906773		-53.300698		1673.925975		-58.637661		0.112291		0.000000		0.375901		-1.160058		36.466004		-1.280125		80.603416		1800.123271		-5.898915		-0.161005		0.000000		0.418598		-0.122134		-2.792772		0.023719		5.293500		-0.697670		-1.033933		0.353265		1.255202		1.891707		-0.007684		0.001013		0.001501		-18.281675		0.459741		-2.563959		-0.289101		1.264799		1.901344		0.002271		-0.000057		0.000318		
0.909879		-17.192340		1875.863299		-148.261683		0.114860		0.000000		0.387508		-0.418827		45.729774		-3.614690		58.969151		1940.703255		-152.059166		-0.161761		0.000000		0.427641		-0.719759		-23.712931		1.862346		5.295861		-0.652978		-0.952009		0.353294		1.255187		1.891650		-0.004440		0.000547		0.000798		-18.310524		0.517740		-2.531551		-0.289068		1.264795		1.901286		0.004334		-0.000123		0.000600		
0.912985		7.917844		1961.666402		-159.833476		0.116435		0.000000		0.392699		0.201981		50.038873		-4.077073		50.015120		1950.310834		-226.083253		-0.162130		0.000000		0.429255		-0.875360		-34.134197		3.956985		5.215471		-0.612308		-0.896061		0.353333		1.255175		1.891597		-0.001508		0.000177		0.000259		-18.367992		0.599682		-2.510116		-0.289036		1.264794		1.901233		0.006844		-0.000223		0.000935		
0.916091		13.060228		1911.966575		-88.756942		0.116571		0.000000		0.391301		0.336922		49.323473		-2.289753		59.147381		1834.938282		-203.651231		-0.160833		0.000000		0.422713		-1.012644		-31.426930		3.488792		5.087090		-0.585338		-0.865409		0.353373		1.255167		1.891549		0.000050		-0.000006		-0.000009		-18.458134		0.702942		-2.497819		-0.289006		1.264797		1.901183		0.009408		-0.000358		0.001273		
0.919197		-1.567659		1749.370214		45.712718		0.114590		0.000000		0.382489		-0.039111		43.876515		1.145040		83.717995		1637.095054		-92.589327		-0.157960		0.000000		0.407547		-0.793563		-15.578475		0.891168		4.959249		-0.571137		-0.851349		0.353410		1.255164		1.891503		0.007446		0.007639		0.039619		-18.569308		0.817678		-2.494406		-0.288977		1.264802		1.901133		0.011766		-0.000518		0.001581		
